<svg id="Layer_1" data-name="Layer 1" xmlns="http://www.w3.org/2000/svg" viewBox="0 0 43.85 88.28"><defs><style>.cls-1{fill:#231f20;}</style></defs><title>arrow-right</title><path class="cls-1" d="M274.4,253.49V182.38a8.57,8.57,0,0,1,15.42-5.15l26.73,35.56a8.61,8.61,0,0,1,0,10.3l-26.73,35.56a8.57,8.57,0,0,1-15.42-5.15Zm38.86-35.56a3.56,3.56,0,0,0-.71-2.14l-26.73-35.56a3.57,3.57,0,0,0-6.42,2.14v71.11a3.57,3.57,0,0,0,6.42,2.14l26.73-35.56A3.57,3.57,0,0,0,313.26,217.94Z" transform="translate(-274.4 -173.8)"/></svg>