<svg id="Layer_1" data-name="Layer 1" xmlns="http://www.w3.org/2000/svg" viewBox="0 0 43.85 88.28"><defs><style>.cls-1{fill:#231f20;}</style></defs><title>arrow-left</title><path class="cls-1" d="M318.25,182.38v71.11a8.57,8.57,0,0,1-15.42,5.15l-26.73-35.56a8.61,8.61,0,0,1,0-10.3l26.73-35.56a8.57,8.57,0,0,1,15.42,5.15ZM279.4,217.94a3.56,3.56,0,0,0,.71,2.14l26.73,35.56a3.57,3.57,0,0,0,6.42-2.14V182.38a3.57,3.57,0,0,0-6.42-2.14l-26.73,35.56A3.57,3.57,0,0,0,279.4,217.94Z" transform="translate(-274.4 -173.8)"/></svg>