<svg id="Layer_1" data-name="Layer 1" xmlns="http://www.w3.org/2000/svg" viewBox="0 0 88.28 43.85"><defs><style>.cls-1{fill:#231f20;}</style></defs><title>arrow-down</title><path class="cls-1" d="M260.77,196h71.11A8.57,8.57,0,0,1,337,211.43l-35.56,26.73a8.61,8.61,0,0,1-10.3,0l-35.56-26.73A8.57,8.57,0,0,1,260.77,196Zm35.56,38.86a3.56,3.56,0,0,0,2.14-.71L334,207.43a3.57,3.57,0,0,0-2.14-6.42H260.77a3.57,3.57,0,0,0-2.14,6.42l35.56,26.73A3.57,3.57,0,0,0,296.33,234.87Z" transform="translate(-252.19 -196.01)"/></svg>