<svg id="Layer_1" data-name="Layer 1" xmlns="http://www.w3.org/2000/svg" viewBox="0 0 88.28 43.85"><defs><style>.cls-1{fill:#231f20;}</style></defs><title>arrow-up</title><path class="cls-1" d="M331.88,239.86H260.77a8.57,8.57,0,0,1-5.15-15.42l35.56-26.73a8.61,8.61,0,0,1,10.3,0L337,224.45a8.57,8.57,0,0,1-5.15,15.42ZM296.33,201a3.56,3.56,0,0,0-2.14.71l-35.56,26.73a3.57,3.57,0,0,0,2.14,6.42h71.11a3.57,3.57,0,0,0,2.14-6.42l-35.56-26.73A3.57,3.57,0,0,0,296.33,201Z" transform="translate(-252.19 -196.01)"/></svg>